# xmcd
#
# Track frame offsets:
#	150
#	8750
#	10722
#	11875
#	13446
#	16083
#	19379
#	27580
#	33344
#	35029
#	36437
#	38223
#	39026
#	40443
#	45871
#	49440
#	54434
#	59142
#	61770
#	63076
#	65833
#	67342
#	71705
#	75199
#	87496
#	92510
#	103430
#	115679
#	128910
#	147697
#	156985
#	168456
#	177086
#	185147
#	193166
#	205946
#	216861
#	227963
#	254463
#	272146
#	283639
#	304731
#	327526
#
# Disc length: 4596 seconds
#
# Revision: 1
# Processed by: cddbd v1.5.1PL0 Copyright (c) Steve Scherf et al.
# Submitted via: CDex 1.50Beta5
#
DISCID=8911f22b
DTITLE=ギタリスト - クラシック・ギター
DYEAR=1900
DGENRE=Classical
TTITLE0=譜1〜4
TTITLE1=譜5
TTITLE2=譜6
TTITLE3=譜7
TTITLE4=譜8、9
TTITLE5=譜10、11
TTITLE6=譜12〜14
TTITLE7=譜15〜17
TTITLE8=譜18
TTITLE9=譜19
TTITLE10=譜20
TTITLE11=譜21
TTITLE12=譜22
TTITLE13=譜23〜26
TTITLE14=譜27,28
TTITLE15=譜29,30
TTITLE16=譜31〜33
TTITLE17=譜34,35
TTITLE18=譜36
TTITLE19=譜37,38
TTITLE20=譜39
TTITLE21=譜40〜42
TTITLE22=譜43、44
TTITLE23=25のエチュードよりNO3
TTITLE24=20のエチュードよりNO2
TTITLE25=「6つの小品」よりワルツ
TTITLE26=メヌエット イ長調
TTITLE27=禁じられた遊び
TTITLE28=カヴァティーナー(2重奏)
TTITLE29=聖母の御子
TTITLE30=鐘の響き
TTITLE31=ラグリマ(なみだ)
TTITLE32=ADELITA
TTITLE33=ブーレ  バッハ
TTITLE34=月光  Fソル
TTITLE35=タンゴ   Fタルレガ
TTITLE36=ソナタOp、21-2より
TTITLE37=アラビア風奇想曲
TTITLE38=11月のある日
TTITLE39=主よ、人の望みの喜びよ
TTITLE40=カヴァティーナ・ディアハンタ
TTITLE41=アンダルーサ
TTITLE42=アルハンブラの想い出
EXTD=
EXTT0=
EXTT1=
EXTT2=
EXTT3=
EXTT4=
EXTT5=
EXTT6=
EXTT7=
EXTT8=
EXTT9=
EXTT10=
EXTT11=
EXTT12=
EXTT13=
EXTT14=
EXTT15=
EXTT16=
EXTT17=
EXTT18=
EXTT19=
EXTT20=
EXTT21=
EXTT22=
EXTT23=
EXTT24=
EXTT25=
EXTT26=
EXTT27=
EXTT28=
EXTT29=
EXTT30=
EXTT31=
EXTT32=
EXTT33=
EXTT34=
EXTT35=
EXTT36=
EXTT37=
EXTT38=
EXTT39=
EXTT40=
EXTT41=
EXTT42=
PLAYORDER=
